Death.Hunt.1981.BRRip.XviD-PsiX

 
http://s21.postimg.org/dwx9tunx3/image.jpg



Canada 1931: The unsociable trapper Johnson lives for himself in
the ice-cold mountains near the Yukon river. During a visit in the
town he witnesses a dog-fight. He interrupts the game and buys
one of the dogs - almost dead already - for $200 against the
owner's will.

When the owner Hasel complains to Mountie Sergeant Millen, he
refuses to take action. But then the loathing breeder and his friends
accuse Johnson of murder. So Millen, although sympathetic, has to
try to take him under arrest - but Johnson defends his freedom in
every way possible.



Director:
Peter R. Hunt
Writers:
Michael Grais, Mark Victor
Stars:
Charles Bronson, Lee Marvin, Andrew Stevens 


 
http://s7.postimg.org/r1i09x4yj/image.png

 
http://s7.postimg.org/n6em7clsr/image.png

 
http://s7.postimg.org/hw9ng21jv/image.png


INFO


Death.Hunt.1981.BRRip.XviD-PsiX.avi
Format : AVI
Format/Info : Audio Video Interleave
File size : 693 MiB
Duration : 1h 37mn
Overall bit rate : 999 Kbps

Video
ID : 0
Format : MPEG-4 Visual
Format profile : Advanced Simple@L5
Format settings, BVOP : 2
Format settings, QPel : No
Format settings, GMC : No warppoints
Format settings, Matrix : Default (H.263)
Muxing mode : Packed bitstream
Codec ID : XVID
Codec ID/Hint : XviD
Duration : 1h 37mn
Bit rate : 865 Kbps
Width : 640 pixels
Height : 352 pixels
Display aspect ratio : 16:9
Frame rate : 23.976 fps
Color space : YUV
Chroma subsampling : 4:2:0
Bit depth : 8 bits
Scan type : Progressive
Compression mode : Lossy
Bits/(Pixel*Frame) : 0.160
Stream size : 600 MiB (87%)
Writing library : XviD 1.2.1 (UTC 2008-12-04)

Audio
ID : 1
Format : MPEG Audio
Format version : Version 1
Format profile : Layer 3
Mode : Joint stereo
Mode extension : MS Stereo
Codec ID : 55
Codec ID/Hint : MP3
Duration : 1h 37mn
Bit rate mode : Constant
Bit rate : 128 Kbps
Channel(s) : 2 channels
Sampling rate : 48.0 KHz
Compression mode : Lossy
Stream size : 88.8 MiB (13%)
Alignment : Aligned on interleaves
Interleave, duration : 167 ms (4.00 video frames)
Interleave, preload duration : 216 ms
Title : death.hunt.1981.1080p.bluray.x264-psychd - [0] English
Writing library : LAME3.99r
Encoding settings : -m j -V 4 -q 2 -lowpass 17 -b 128



Encoded............: PsiX
Source.............: 1080p-psychd
Subs..........No